<svg viewBox="0 0 202 48" xmlns="http://www.w3.org/2000/svg" fill-rule="evenodd" clip-rule="evenodd" stroke-miterlimit="10"><g><path d="M41.323 24c2.697-5.658 3.462-12 3.462-12S38.91 9.492 32.66 9C29.11 3.833 24 0 24 0s-5.11 3.834-8.66 9c-6.25.492-12.125 3-12.125 3s.765 6.342 3.463 12C3.98 29.658 3.215 36 3.215 36s5.876 2.508 12.124 3c3.55 5.166 8.66 9 8.66 9s5.11-3.834 8.66-9c6.25-.492 12.125-3 12.125-3s-.765-6.342-3.462-12z" fill="#8cc63f" stroke-width=".858.33" stroke="#fff"/><path d="M48 24s-3.834-5.11-9-8.66c-.49-6.25-3-12.124-3-12.124s-6.342.764-12 3.462C18.343 3.98 12 3.216 12 3.216S9.492 9.09 9 15.34C3.833 18.89 0 24 0 24s3.834 5.11 9 8.66c.492 6.25 3 12.124 3 12.124s6.343-.764 12-3.462c5.658 2.698 12 3.462 12 3.462s2.51-5.875 3-12.123c5.166-3.55 9-8.66 9-8.66z" fill="#39b54a" stroke-width=".858.33" stroke="#fff"/><path d="M41.323 24c0 9.567-7.756 17.322-17.323 17.322S6.678 33.567 6.678 24 14.433 6.678 24 6.678 41.323 14.433 41.323 24" fill="#009245" stroke-width=".858.33" stroke-linejoin="round" stroke-miterlimit="1.414" stroke="#000"/><path d="M41.323 24c0 9.567-7.756 17.322-17.323 17.322S6.678 33.567 6.678 24 14.433 6.678 24 6.678 41.323 14.433 41.323 24z" fill="none" stroke-width=".858.33" stroke="#fff"/><path d="M39 15.34c-2.483-1.708-5.273-3.054-8.094-3.298C29.284 9.72 26.722 7.975 24 6.677c-2.72 1.298-5.284 3.043-6.906 5.365-2.82.244-5.612 1.59-8.095 3.297-.238 3.004-.008 6.094 1.192 8.66-1.2 2.565-1.43 5.655-1.193 8.66 2.482 1.708 5.273 3.054 8.094 3.298 1.622 2.322 4.185 4.067 6.906 5.364 2.722-1.297 5.284-3.042 6.906-5.364 2.82-.244 5.61-1.59 8.095-3.297.238-3.005.008-6.095-1.192-8.66 1.2-2.566 1.43-5.656 1.193-8.66z" fill="#006837" stroke-width=".858.33" stroke="#fff"/><path d="M60.772 18.714l-1.86 1.1c-.346-.602-.678-.995-.992-1.18-.328-.21-.75-.314-1.27-.314-.635 0-1.163.18-1.582.542-.42.354-.63.8-.63 1.338 0 .742.55 1.34 1.652 1.79l1.515.62c1.232.5 2.134 1.11 2.705 1.827.57.718.855 1.6.855 2.643 0 1.397-.465 2.552-1.396 3.464-.94.92-2.103 1.378-3.492 1.378-1.32 0-2.407-.392-3.266-1.176-.846-.783-1.374-1.883-1.583-3.3l2.32-.51c.104.892.288 1.508.55 1.85.472.655 1.16.982 2.066.982.714 0 1.308-.24 1.78-.717.472-.478.708-1.084.708-1.817 0-.295-.04-.565-.123-.81-.08-.247-.21-.473-.382-.68-.174-.206-.4-.4-.674-.58-.275-.18-.604-.35-.984-.515l-1.465-.61c-2.08-.878-3.118-2.162-3.118-3.852 0-1.14.436-2.093 1.31-2.86.87-.773 1.955-1.16 3.254-1.16 1.75 0 3.118.85 4.102 2.548" fill="#414440"/><path d="M73.767 18.615H67.68v3.65h5.91v2.153h-5.91v5.075h6.087v2.154h-8.38V16.46h8.38v2.155zM78.26 31.647V15.43l11.075 11.584V16.46h2.292v16.11L80.552 21.016v10.632h-2.29zM100.857 18.615v13.032h-2.29V18.615h-3.493V16.46h9.265v2.155h-3.483zM107.795 16.46h2.29v15.187h-2.29zM123.21 25.805l-2.253-5.164-2.36 5.165h4.612zm.934 2.154h-6.5l-1.693 3.687h-2.467l7.514-16.14 7.248 16.14h-2.508l-1.593-3.688zM142.45 25.086l-4.958-8.625h2.636l3.472 6.07 3.48-6.07h2.637l-4.976 8.626v6.56h-2.29v-6.56zM153.468 24.01c0 1.677.564 3.056 1.692 4.137 1.12 1.08 2.416 1.62 3.885 1.62 1.593 0 2.937-.55 4.032-1.65 1.095-1.113 1.643-2.47 1.643-4.068 0-1.62-.54-2.975-1.623-4.07-1.076-1.1-2.407-1.65-3.993-1.65-1.58 0-2.915.55-4.003 1.65-1.088 1.09-1.632 2.432-1.632 4.03m-2.31-.025c0-2.137.782-3.973 2.35-5.508 1.56-1.534 3.435-2.3 5.625-2.3 2.164 0 4.02.773 5.567 2.32 1.554 1.548 2.33 3.406 2.33 5.577 0 2.183-.78 4.036-2.34 5.557-1.567 1.528-3.458 2.292-5.675 2.292-1.96 0-3.72-.678-5.28-2.036-1.72-1.5-2.578-3.468-2.578-5.9" fill="#414440"/><path d="M179.09 23.74h6.274v.5c0 1.142-.134 2.152-.403 3.03-.26.813-.704 1.574-1.327 2.282-1.41 1.587-3.203 2.38-5.38 2.38-2.124 0-3.943-.767-5.458-2.3-1.514-1.542-2.272-3.39-2.272-5.548 0-2.203.77-4.072 2.312-5.606 1.54-1.54 3.415-2.31 5.625-2.31 1.186 0 2.295.24 3.325.723.983.484 1.95 1.27 2.9 2.355l-1.632 1.563c-1.246-1.658-2.763-2.488-4.553-2.488-1.607 0-2.955.554-4.043 1.663-1.088 1.088-1.632 2.452-1.632 4.09 0 1.692.606 3.086 1.82 4.18 1.133 1.017 2.363 1.525 3.687 1.525 1.128 0 2.14-.38 3.04-1.137.898-.765 1.4-1.68 1.504-2.747h-3.786V23.74zM196.97 25.805l-2.253-5.164-2.36 5.165h4.612zm.934 2.154h-6.5l-1.693 3.687h-2.468l7.515-16.14 7.248 16.14h-2.508l-1.593-3.688z" fill="#414440"/></g></svg>