<?xml version="1.0" encoding="utf-8"?>
<!-- Generator: Adobe Illustrator 18.0.0, SVG Export Plug-In . SVG Version: 6.00 Build 0)  -->
<!DOCTYPE svg PUBLIC "-//W3C//DTD SVG 1.1//EN" "http://www.w3.org/Graphics/SVG/1.1/DTD/svg11.dtd">
<svg version="1.1" id="Layer_1" xmlns="http://www.w3.org/2000/svg" xmlns:xlink="http://www.w3.org/1999/xlink" x="0px" y="0px"
	 viewBox="0 0 24 24" enable-background="new 0 0 24 24" xml:space="preserve">
<path id="White_2_" fill="#414440" d="M21.8,1H2.2C1.5,1,1,1.5,1,2.2v19.6C1,22.5,1.5,23,2.2,23h10.5v-8.5H9.9v-3.3h2.9V8.7
	c0-2.8,1.7-4.4,4.3-4.4c1.2,0,2.3,0.1,2.6,0.1v3l-1.8,0c-1.4,0-1.6,0.7-1.6,1.6v2.1h3.3L19,14.5h-2.9V23h5.6c0.7,0,1.2-0.5,1.2-1.2
	V2.2C23,1.5,22.5,1,21.8,1z"/>
</svg>
