<?xml version="1.0" encoding="utf-8"?>
<!-- Generator: Adobe Illustrator 18.0.0, SVG Export Plug-In . SVG Version: 6.00 Build 0)  -->
<!DOCTYPE svg PUBLIC "-//W3C//DTD SVG 1.1//EN" "http://www.w3.org/Graphics/SVG/1.1/DTD/svg11.dtd">
<svg version="1.1" id="Layer_1" xmlns="http://www.w3.org/2000/svg" xmlns:xlink="http://www.w3.org/1999/xlink" x="0px" y="0px"
	 viewBox="0 0 404 96" enable-background="new 0 0 404 96" xml:space="preserve">
<path fill="#8CC63F" stroke="#FFFFFF" stroke-width="2" stroke-miterlimit="10" d="M82.6,48c5.4-11.3,6.9-24,6.9-24s-11.8-5-24.2-6
	C58.2,7.7,48,0,48,0S37.8,7.7,30.7,18c-12.5,1-24.2,6-24.2,6S8,36.7,13.4,48C8,59.3,6.4,72,6.4,72s11.8,5,24.2,6
	C37.8,88.3,48,96,48,96s10.2-7.7,17.3-18c12.5-1,24.2-6,24.2-6S88,59.3,82.6,48z"/>
<path fill="#39B54A" stroke="#FFFFFF" stroke-width="2" stroke-miterlimit="10" d="M96,48c0,0-7.7-10.2-18-17.3
	c-1-12.5-6-24.2-6-24.2S59.3,8,48,13.4C36.7,8,24,6.4,24,6.4s-5,11.8-6,24.2C7.7,37.8,0,48,0,48s7.7,10.2,18,17.3
	c1,12.5,6,24.2,6,24.2s12.7-1.5,24-6.9c11.3,5.4,24,6.9,24,6.9s5-11.8,6-24.2C88.3,58.2,96,48,96,48z"/>
<circle fill="#009245" stroke="#FFFFFF" stroke-width="2" stroke-miterlimit="10" cx="48" cy="48" r="34.6"/>
<path fill="#006837" stroke="#FFFFFF" stroke-width="2" stroke-miterlimit="10" d="M78,30.7c-5-3.4-10.5-6.1-16.2-6.6
	c-3.2-4.6-8.4-8.1-13.8-10.7c-5.4,2.6-10.6,6.1-13.8,10.7C28.5,24.6,23,27.3,18,30.7c-0.5,6,0,12.2,2.4,17.3
	C18,53.1,17.5,59.3,18,65.3c5,3.4,10.5,6.1,16.2,6.6c3.2,4.6,8.4,8.1,13.8,10.7c5.4-2.6,10.6-6.1,13.8-10.7
	c5.6-0.5,11.2-3.2,16.2-6.6c0.5-6,0-12.2-2.4-17.3C78,42.9,78.5,36.7,78,30.7z"/>
<g>
	<path fill="#414440" d="M121.5,37.4l-3.7,2.2c-0.7-1.2-1.4-2-2-2.4c-0.7-0.4-1.5-0.6-2.5-0.6c-1.3,0-2.3,0.4-3.2,1.1
		c-0.8,0.7-1.3,1.6-1.3,2.7c0,1.5,1.1,2.7,3.3,3.6l3,1.2c2.5,1,4.3,2.2,5.4,3.7c1.1,1.4,1.7,3.2,1.7,5.3c0,2.8-0.9,5.1-2.8,6.9
		c-1.9,1.8-4.2,2.8-7,2.8c-2.6,0-4.8-0.8-6.5-2.4c-1.7-1.6-2.7-3.8-3.2-6.6l4.6-1c0.2,1.8,0.6,3,1.1,3.7c0.9,1.3,2.3,2,4.1,2
		c1.4,0,2.6-0.5,3.6-1.4c0.9-1,1.4-2.2,1.4-3.6c0-0.6-0.1-1.1-0.2-1.6c-0.2-0.5-0.4-0.9-0.8-1.4c-0.3-0.4-0.8-0.8-1.3-1.2
		c-0.6-0.4-1.2-0.7-2-1l-2.9-1.2c-4.2-1.8-6.2-4.3-6.2-7.7c0-2.3,0.9-4.2,2.6-5.7c1.7-1.5,3.9-2.3,6.5-2.3
		C116.8,32.3,119.6,34,121.5,37.4z"/>
	<path fill="#414440" d="M147.5,37.2h-12.2v7.3h11.8v4.3h-11.8V59h12.2v4.3h-16.8V32.9h16.8V37.2z"/>
	<path fill="#414440" d="M156.5,63.3V30.9L178.7,54V32.9h4.6v32.2L161.1,42v21.3H156.5z"/>
	<path fill="#414440" d="M201.7,37.2v26.1h-4.6V37.2h-7v-4.3h18.5v4.3H201.7z"/>
	<path fill="#414440" d="M220.2,32.9v30.4h-4.6V32.9H220.2z"/>
	<path fill="#414440" d="M248.3,55.9h-13l-3.4,7.4H227L242,31l14.5,32.3h-5L248.3,55.9z M246.4,51.6l-4.5-10.3l-4.7,10.3H246.4z"/>
	<path fill="#414440" d="M284.9,50.2L275,32.9h5.3l6.9,12.1l7-12.1h5.3l-10,17.3v13.1h-4.6V50.2z"/>
	<path fill="#414440" d="M302.3,48c0-4.3,1.6-7.9,4.7-11c3.1-3.1,6.9-4.6,11.3-4.6c4.3,0,8,1.5,11.1,4.6c3.1,3.1,4.7,6.8,4.7,11.2
		c0,4.4-1.6,8.1-4.7,11.1c-3.1,3.1-6.9,4.6-11.3,4.6c-3.9,0-7.4-1.4-10.6-4.1C304,56.8,302.3,52.8,302.3,48z M306.9,48
		c0,3.4,1.1,6.1,3.4,8.3c2.2,2.2,4.8,3.2,7.8,3.2c3.2,0,5.9-1.1,8.1-3.3c2.2-2.2,3.3-4.9,3.3-8.1c0-3.2-1.1-5.9-3.2-8.1
		c-2.2-2.2-4.8-3.3-8-3.3c-3.2,0-5.8,1.1-8,3.3C308,42.1,306.9,44.8,306.9,48z"/>
	<path fill="#414440" d="M358.2,47.5h12.5v1c0,2.3-0.3,4.3-0.8,6.1c-0.5,1.6-1.4,3.1-2.7,4.6c-2.8,3.2-6.4,4.8-10.8,4.8
		c-4.2,0-7.9-1.5-10.9-4.6c-3-3.1-4.5-6.8-4.5-11.1c0-4.4,1.5-8.1,4.6-11.2c3.1-3.1,6.8-4.6,11.3-4.6c2.4,0,4.6,0.5,6.6,1.4
		c2,1,3.9,2.5,5.8,4.7l-3.3,3.1c-2.5-3.3-5.5-5-9.1-5c-3.2,0-5.9,1.1-8.1,3.3c-2.2,2.2-3.3,4.9-3.3,8.2c0,3.4,1.2,6.2,3.6,8.4
		c2.3,2,4.7,3,7.4,3c2.3,0,4.3-0.8,6.1-2.3c1.8-1.5,2.8-3.4,3-5.5h-7.6V47.5z"/>
	<path fill="#414440" d="M395.8,55.9h-13l-3.4,7.4h-4.9l15-32.3L404,63.3h-5L395.8,55.9z M393.9,51.6l-4.5-10.3l-4.7,10.3H393.9z"/>
</g>
</svg>
